<?xml version="1.0" encoding="utf-8"?>
<!-- Generator: Adobe Illustrator 27.5.0, SVG Export Plug-In . SVG Version: 6.00 Build 0)  -->
<svg version="1.1" id="Capa_1" xmlns="http://www.w3.org/2000/svg" xmlns:xlink="http://www.w3.org/1999/xlink" x="0px" y="0px"
	 viewBox="0 0 2372 1898" style="enable-background:new 0 0 2372 1898;" xml:space="preserve">
<g>
	<g>
		
			<rect x="1376.18" y="922.293" style="fill:#F49758;stroke:#51222C;stroke-width:11.1558;stroke-linecap:round;stroke-linejoin:round;stroke-miterlimit:10;" width="386.579" height="417.568"/>
		
			<path style="fill:#E85811;stroke:#512224;stroke-width:11.1558;stroke-linecap:round;stroke-linejoin:round;stroke-miterlimit:10;" d="
			M1182.823,827.415h193.357c26.212,0,47.45,21.244,47.45,47.434c0,26.201-21.238,47.444-47.45,47.444v417.568h-240.791V874.849
			C1135.389,848.659,1156.622,827.415,1182.823,827.415z"/>
		
			<path style="fill:#F7B081;stroke:#51222C;stroke-width:11.1558;stroke-linecap:round;stroke-linejoin:round;stroke-miterlimit:10;" d="
			M1423.63,874.849c0-26.19-21.238-47.434-47.45-47.434h386.579c26.2,0,47.439,21.244,47.439,47.434
			c0,26.201-21.239,47.444-47.439,47.444H1376.18C1402.392,922.293,1423.63,901.049,1423.63,874.849z"/>
		<g>
			<g>
				
					<rect x="1396.177" y="947.775" style="fill:#F7B081;stroke:#51222C;stroke-width:11.1558;stroke-linecap:round;stroke-linejoin:round;stroke-miterlimit:10;" width="350.393" height="114.15"/>
				
					<rect x="1396.177" y="1075.641" style="fill:#F7B081;stroke:#51222C;stroke-width:11.1558;stroke-linecap:round;stroke-linejoin:round;stroke-miterlimit:10;" width="350.393" height="114.161"/>
				
					<rect x="1396.177" y="1200.218" style="fill:#F7B081;stroke:#51222C;stroke-width:11.1558;stroke-linecap:round;stroke-linejoin:round;stroke-miterlimit:10;" width="350.393" height="114.151"/>
			</g>
			
				<path style="fill:#E85811;stroke:#512224;stroke-width:11.1558;stroke-linecap:round;stroke-linejoin:round;stroke-miterlimit:10;" d="
				M1506.525,980.894c0,5.665,4.586,10.24,10.24,10.24h109.216c5.665,0,10.24-4.576,10.24-10.24l0,0
				c0-5.654-4.576-10.24-10.24-10.24h-109.216C1511.111,970.653,1506.525,975.239,1506.525,980.894L1506.525,980.894z"/>
			
				<path style="fill:#E85811;stroke:#512224;stroke-width:11.1558;stroke-linecap:round;stroke-linejoin:round;stroke-miterlimit:10;" d="
				M1506.525,1110.596c0,5.649,4.586,10.235,10.24,10.235h109.216c5.665,0,10.24-4.587,10.24-10.235l0,0
				c0-5.665-4.576-10.246-10.24-10.246h-109.216C1511.111,1100.35,1506.525,1104.931,1506.525,1110.596L1506.525,1110.596z"/>
			
				<path style="fill:#E85811;stroke:#512224;stroke-width:11.1558;stroke-linecap:round;stroke-linejoin:round;stroke-miterlimit:10;" d="
				M1506.525,1240.298c0,5.654,4.586,10.229,10.24,10.229h109.216c5.665,0,10.24-4.576,10.24-10.229l0,0
				c0-5.666-4.576-10.252-10.24-10.252h-109.216C1511.111,1230.047,1506.525,1234.633,1506.525,1240.298L1506.525,1240.298z"/>
		</g>
	</g>
	<g>
		
			<rect x="1135.389" y="1075.761" style="fill:#E85811;stroke:#512224;stroke-width:11.1558;stroke-linecap:round;stroke-linejoin:round;stroke-miterlimit:10;" width="239.871" height="229.761"/>
		
			<path style="fill:#E85811;stroke:#512224;stroke-width:11.1558;stroke-linecap:round;stroke-linejoin:round;stroke-miterlimit:10;" d="
			M831.852,827.404h191.805c25.999,0,47.075,21.081,47.075,47.075c0,25.994-21.076,47.052-47.075,47.052v418.44H784.788V874.478
			C784.788,848.484,805.857,827.404,831.852,827.404z"/>
		
			<path style="fill:#F7B081;stroke:#51222C;stroke-width:11.1558;stroke-linecap:round;stroke-linejoin:round;stroke-miterlimit:10;" d="
			M1070.731,874.478c0-25.994-21.076-47.075-47.075-47.075h383.501c25.983,0,47.058,21.081,47.058,47.075
			c0,25.994-21.075,47.052-47.058,47.052h-383.501C1049.656,921.531,1070.731,900.472,1070.731,874.478z"/>
		
			<path style="fill:#F49758;stroke:#51222C;stroke-width:11.1558;stroke-linecap:round;stroke-linejoin:round;stroke-miterlimit:10;" d="
			M1023.657,921.531v418.44h383.501v-418.44H1023.657z M1055.555,1075.761h319.704v229.761h-319.704V1075.761z"/>
		
			<rect x="1055.555" y="942.72" style="fill:#F7B081;stroke:#51222C;stroke-width:11.1558;stroke-linecap:round;stroke-linejoin:round;stroke-miterlimit:10;" width="319.704" height="104.149"/>
		
			<path style="fill:#E85811;stroke:#512224;stroke-width:11.1558;stroke-linecap:round;stroke-linejoin:round;stroke-miterlimit:10;" d="
			M1156.24,972.946c0,5.158,4.178,9.326,9.337,9.326h99.661c5.159,0,9.342-4.167,9.342-9.326l0,0c0-5.17-4.183-9.342-9.342-9.342
			h-99.661C1160.419,963.605,1156.24,967.777,1156.24,972.946L1156.24,972.946z"/>
	</g>
	<g>
		
			<rect x="638.401" y="922.293" style="fill:#F49758;stroke:#51222C;stroke-width:11.1558;stroke-linecap:round;stroke-linejoin:round;stroke-miterlimit:10;" width="386.579" height="417.568"/>
		
			<path style="fill:#E85811;stroke:#512224;stroke-width:11.1558;stroke-linecap:round;stroke-linejoin:round;stroke-miterlimit:10;" d="
			M445.038,827.415h193.364c26.212,0,47.444,21.244,47.444,47.434c0,26.201-21.233,47.444-47.444,47.444v417.568H397.604V874.849
			C397.604,848.659,418.843,827.415,445.038,827.415z"/>
		
			<path style="fill:#F7B081;stroke:#51222C;stroke-width:11.1558;stroke-linecap:round;stroke-linejoin:round;stroke-miterlimit:10;" d="
			M685.846,874.849c0-26.19-21.233-47.434-47.444-47.434h386.579c26.195,0,47.439,21.244,47.439,47.434
			c0,26.201-21.244,47.444-47.439,47.444H638.401C664.613,922.293,685.846,901.049,685.846,874.849z"/>
		<g>
			<g>
				
					<rect x="658.398" y="947.775" style="fill:#F7B081;stroke:#51222C;stroke-width:11.1558;stroke-linecap:round;stroke-linejoin:round;stroke-miterlimit:10;" width="350.388" height="114.15"/>
				
					<rect x="658.398" y="1075.641" style="fill:#F7B081;stroke:#51222C;stroke-width:11.1558;stroke-linecap:round;stroke-linejoin:round;stroke-miterlimit:10;" width="350.388" height="114.161"/>
				
					<rect x="658.398" y="1200.218" style="fill:#F7B081;stroke:#51222C;stroke-width:11.1558;stroke-linecap:round;stroke-linejoin:round;stroke-miterlimit:10;" width="350.388" height="114.151"/>
			</g>
			
				<path style="fill:#E85811;stroke:#512224;stroke-width:11.1558;stroke-linecap:round;stroke-linejoin:round;stroke-miterlimit:10;" d="
				M768.74,980.894c0,5.665,4.587,10.24,10.241,10.24h109.216c5.665,0,10.24-4.576,10.24-10.24l0,0c0-5.654-4.576-10.24-10.24-10.24
				H778.982C773.327,970.653,768.74,975.239,768.74,980.894L768.74,980.894z"/>
			
				<path style="fill:#E85811;stroke:#512224;stroke-width:11.1558;stroke-linecap:round;stroke-linejoin:round;stroke-miterlimit:10;" d="
				M768.74,1110.596c0,5.649,4.587,10.235,10.241,10.235h109.216c5.665,0,10.24-4.587,10.24-10.235l0,0
				c0-5.665-4.576-10.246-10.24-10.246H778.982C773.327,1100.35,768.74,1104.931,768.74,1110.596L768.74,1110.596z"/>
			
				<path style="fill:#E85811;stroke:#512224;stroke-width:11.1558;stroke-linecap:round;stroke-linejoin:round;stroke-miterlimit:10;" d="
				M768.74,1240.298c0,5.654,4.587,10.229,10.241,10.229h109.216c5.665,0,10.24-4.576,10.24-10.229l0,0
				c0-5.666-4.576-10.252-10.24-10.252H778.982C773.327,1230.047,768.74,1234.633,768.74,1240.298L768.74,1240.298z"/>
		</g>
	</g>
	<g>
		
			<path style="fill:#008587;stroke:#51222E;stroke-width:5.5779;stroke-linecap:round;stroke-linejoin:round;stroke-miterlimit:10;" d="
			M1589.376,816.51V623.495l0,0c0-16.68-13.531-30.199-30.21-30.199c-16.68,0-30.21,13.52-30.21,30.199h0.011V816.51
			c0,1.808-1.476,3.279-3.279,3.279c-1.808,0-3.279-1.471-3.279-3.279V623.495c0-20.296,16.461-36.758,36.758-36.758
			c20.307,0,36.757,16.461,36.757,36.758l0,0V816.51c0,1.808-1.46,3.279-3.279,3.279
			C1590.847,819.789,1589.376,818.318,1589.376,816.51z"/>
		<g>
			
				<path style="fill:#DDD6D5;stroke:#51222C;stroke-width:5.5779;stroke-linecap:round;stroke-linejoin:round;stroke-miterlimit:10;" d="
				M1528.957,814.865v-183.45c0-16.69,13.52-30.21,30.21-30.21c16.69,0,30.21,13.52,30.21,30.21v183.45H1528.957z"/>
			
				<path style="fill:#C6BCB7;stroke:#51222C;stroke-width:5.5779;stroke-linecap:round;stroke-linejoin:round;stroke-miterlimit:10;" d="
				M1581.886,814.865V627.079c0-17.889-13.885-25.874-22.72-25.874c-16.69,0-30.21,13.52-30.21,30.21v-7.888
				c0-16.668,13.52-30.21,30.21-30.21c16.69,0,30.21,13.542,30.21,30.21v191.337H1581.886z"/>
		</g>
		<g>
			<line style="fill:#51222C;" x1="1540.744" y1="641.34" x2="1540.744" y2="786.43"/>
			<line style="fill:#51222C;" x1="1559.167" y1="609.79" x2="1559.167" y2="720.433"/>
			<line style="fill:#51222C;" x1="1575.41" y1="670.188" x2="1575.41" y2="814.865"/>
			<line style="fill:#51222C;" x1="1565.839" y1="660.492" x2="1565.839" y2="814.865"/>
			<line style="fill:#51222C;" x1="1548.872" y1="660.492" x2="1548.872" y2="814.865"/>
			<line style="fill:#51222C;" x1="1534.839" y1="753.644" x2="1534.839" y2="814.865"/>
			<line style="fill:#51222C;" x1="1583.962" y1="638.028" x2="1583.962" y2="804.046"/>
			<line style="fill:#51222C;" x1="1552.728" y1="632.744" x2="1552.728" y2="692.489"/>
		</g>
	</g>
	<g>
		
			<path style="fill:#DDD6D5;stroke:#51222C;stroke-width:5.5779;stroke-linecap:round;stroke-linejoin:round;stroke-miterlimit:10;" d="
			M1607.564,812.206V594.789c0-12.507,10.214-22.649,22.819-22.649c12.588,0,22.801,10.142,22.801,22.649v217.418H1607.564z"/>
		
			<path style="fill:#2EA437;stroke:#51222C;stroke-width:5.5779;stroke-linecap:round;stroke-linejoin:round;stroke-miterlimit:10;" d="
			M1653.184,813.982V588.797c-0.13-12.463-10.311-22.573-22.801-22.573c-12.502,0-22.693,10.11-22.819,22.573v225.185
			c0,3.192-2.609,5.807-5.817,5.807s-5.823-2.615-5.823-5.807V586.018c1.536-17.583,16.472-31.43,34.459-31.43
			c17.975,0,32.906,13.846,34.437,31.43v227.964c0,3.192-2.604,5.807-5.818,5.807
			C1655.793,819.789,1653.184,817.174,1653.184,813.982z"/>
		<g>
			<line style="fill:#51222C;" x1="1616.029" y1="622.089" x2="1616.029" y2="787.879"/>
			<line style="fill:#51222C;" x1="1630.383" y1="595.099" x2="1630.383" y2="712.267"/>
			<line style="fill:#51222C;" x1="1640.678" y1="646.76" x2="1640.678" y2="812.206"/>
			<line style="fill:#51222C;" x1="1634.566" y1="638.464" x2="1634.566" y2="812.206"/>
			<line style="fill:#51222C;" x1="1622.974" y1="638.464" x2="1622.974" y2="812.206"/>
			<line style="fill:#51222C;" x1="1610.98" y1="759.848" x2="1610.98" y2="812.206"/>
			<line style="fill:#51222C;" x1="1644.24" y1="619.263" x2="1644.24" y2="802.935"/>
			<line style="fill:#51222C;" x1="1626.265" y1="614.752" x2="1626.265" y2="688.37"/>
		</g>
		
			<path style="fill:#C6BCB7;stroke:#51222C;stroke-width:5.5779;stroke-linecap:round;stroke-linejoin:round;stroke-miterlimit:10;" d="
			M1646.86,593.813c0-16.619-11.76-21.674-16.478-21.674c-12.605,0-22.819,10.142-22.819,22.649v-5.91
			c0-12.512,10.214-22.655,22.819-22.655c12.588,0,22.801,10.143,22.801,22.655v223.328h-6.324V593.813z"/>
	</g>
	<g>
		
			<path style="fill:#DDD6D5;stroke:#51222C;stroke-width:5.5779;stroke-linecap:round;stroke-linejoin:round;stroke-miterlimit:10;" d="
			M1672.13,815.448V623.745c0-13.716,11.199-24.828,25.002-24.828c13.814,0,25.008,11.112,25.008,24.828v191.702H1672.13z"/>
		
			<path style="fill:#E85811;stroke:#512224;stroke-width:5.5779;stroke-linecap:round;stroke-linejoin:round;stroke-miterlimit:10;" d="
			M1722.086,816.106V617.155v-0.017v-0.022c-0.147-13.612-11.335-24.681-24.954-24.681c-13.618,0-24.8,11.069-24.948,24.681v0.022
			v0.017v198.951c0,2.038-1.651,3.682-3.671,3.682c-2.037,0-3.693-1.645-3.693-3.682V614.463
			c0.719-7.974,4.396-15.361,10.371-20.829c6.014-5.524,13.808-8.552,21.941-8.552c8.127,0,15.928,3.028,21.952,8.552
			c5.97,5.469,9.641,12.855,10.36,20.829v201.643c0,2.038-1.656,3.682-3.693,3.682
			C1723.73,819.789,1722.086,818.144,1722.086,816.106z"/>
		<g>
			<line style="fill:#51222C;" x1="1681.401" y1="665.83" x2="1681.401" y2="764.947"/>
			<line style="fill:#51222C;" x1="1697.132" y1="624.089" x2="1697.132" y2="739.661"/>
			<line style="fill:#51222C;" x1="1708.419" y1="692.876" x2="1708.419" y2="815.448"/>
			<line style="fill:#51222C;" x1="1701.73" y1="683.773" x2="1701.73" y2="815.448"/>
			<line style="fill:#51222C;" x1="1689.027" y1="683.773" x2="1689.027" y2="815.448"/>
			<line style="fill:#51222C;" x1="1675.872" y1="734.224" x2="1675.872" y2="815.448"/>
			<line style="fill:#51222C;" x1="1712.335" y1="662.72" x2="1712.335" y2="768.27"/>
			<line style="fill:#51222C;" x1="1692.638" y1="657.768" x2="1692.638" y2="713.466"/>
		</g>
		
			<path style="fill:#C6BCB7;stroke:#51222C;stroke-width:5.5779;stroke-linecap:round;stroke-linejoin:round;stroke-miterlimit:10;" d="
			M1715.206,622.678c0-18.21-12.899-23.761-18.074-23.761c-13.803,0-25.002,11.112-25.002,24.828v-6.482
			c0-13.716,11.199-24.828,25.002-24.828c13.814,0,25.008,11.112,25.008,24.828v198.184h-6.934V622.678z"/>
	</g>
	<g>
		
			<path style="fill:#92B545;stroke:#51222C;stroke-width:5.5779;stroke-linecap:round;stroke-linejoin:round;stroke-miterlimit:10;" d="
			M1420.09,819.614c0,0,10.6,5.213,24.343,5.213c13.749,0,24.344-5.213,24.344-5.213V651.063c0,0-5.85-2.881-24.344-2.881
			c-18.493,0-24.343,2.881-24.343,2.881V819.614z"/>
		
			<path style="fill:#BDC042;stroke:#51222C;stroke-width:5.5779;stroke-linecap:round;stroke-linejoin:round;stroke-miterlimit:10;" d="
			M1432.542,685.424c0,6.564,5.328,11.88,11.891,11.88c6.564,0,11.88-5.316,11.88-11.88c0-6.563-5.316-11.891-11.88-11.891
			C1437.869,673.533,1432.542,678.86,1432.542,685.424z"/>
		
			<path style="fill:#BDC042;stroke:#51222C;stroke-width:5.5779;stroke-linecap:round;stroke-linejoin:round;stroke-miterlimit:10;" d="
			M1444.433,656.069c18.494,0,24.344,2.882,24.344,2.882v11.51c0,0-5.85-2.887-24.344-2.887c-18.493,0-24.343,2.887-24.343,2.887
			v-11.51C1420.09,658.95,1425.94,656.069,1444.433,656.069z"/>
		
			<path style="fill:#BDC042;stroke:#51222C;stroke-width:5.5779;stroke-linecap:round;stroke-linejoin:round;stroke-miterlimit:10;" d="
			M1444.433,806.901c18.494,0,24.344-2.876,24.344-2.876V792.52c0,0-5.85,2.876-24.344,2.876c-18.493,0-24.343-2.876-24.343-2.876
			v11.504C1420.09,804.024,1425.94,806.901,1444.433,806.901z"/>
		
			<path style="fill:#BDC042;stroke:#51222C;stroke-width:5.5779;stroke-linecap:round;stroke-linejoin:round;stroke-miterlimit:10;" d="
			M1444.433,817.425c18.494,0,24.344-2.882,24.344-2.882v-5.758c0,0-5.85,2.887-24.344,2.887c-18.493,0-24.343-2.887-24.343-2.887
			v5.758C1420.09,814.543,1425.94,817.425,1444.433,817.425z"/>
	</g>
	<g>
		
			<path style="fill:#999B9C;stroke:#51222C;stroke-width:5.5779;stroke-linecap:round;stroke-linejoin:round;stroke-miterlimit:10;" d="
			M1216.726,818.688c0,0,12.474,6.139,28.674,6.139c16.189,0,28.669-6.139,28.669-6.139V620.151c0,0-6.891-3.388-28.669-3.388
			c-21.788,0-28.674,3.388-28.674,3.388V818.688z"/>
		
			<path style="fill:#BBB9B8;stroke:#51222C;stroke-width:5.5779;stroke-linecap:round;stroke-linejoin:round;stroke-miterlimit:10;" d="
			M1216.726,644.118c0,0,1.944-0.958,7.07-1.862c3.11-5.186,11.603-8.901,21.603-8.901c9.99,0,18.488,3.715,21.598,8.901
			c5.115,0.904,7.07,1.862,7.07,1.862v13.553c0,0-2.985-1.47-11.216-2.467c-4.194,2.882-10.458,4.701-17.453,4.701
			c-7.005,0-13.269-1.819-17.458-4.701c-8.241,0.997-11.215,2.467-11.215,2.467V644.118z"/>
		
			<path style="fill:#BBB9B8;stroke:#51222C;stroke-width:5.5779;stroke-linecap:round;stroke-linejoin:round;stroke-miterlimit:10;" d="
			M1245.399,803.714c21.778,0,28.669-3.394,28.669-3.394v-13.553c0,0-6.891,3.388-28.669,3.388c-21.788,0-28.674-3.388-28.674-3.388
			v13.553C1216.726,800.321,1223.611,803.714,1245.399,803.714z"/>
		
			<path style="fill:#BBB9B8;stroke:#51222C;stroke-width:5.5779;stroke-linecap:round;stroke-linejoin:round;stroke-miterlimit:10;" d="
			M1245.399,816.106c21.778,0,28.669-3.388,28.669-3.388v-6.782c0,0-6.891,3.382-28.669,3.382c-21.788,0-28.674-3.382-28.674-3.382
			v6.782C1216.726,812.718,1223.611,816.106,1245.399,816.106z"/>
	</g>
	<g>
		
			<path style="fill:#24465E;stroke:#51222C;stroke-width:5.5779;stroke-linecap:round;stroke-linejoin:round;stroke-miterlimit:10;" d="
			M1371.403,819.614c0,0,10.6,5.213,24.343,5.213c13.749,0,24.344-5.213,24.344-5.213V572.466c0,0-5.85-2.87-24.344-2.87
			c-18.493,0-24.343,2.87-24.343,2.87V819.614z"/>
		
			<path style="fill:#376280;stroke:#51222C;stroke-width:5.5779;stroke-linecap:round;stroke-linejoin:round;stroke-miterlimit:10;" d="
			M1395.746,577.483c18.493,0,24.344,2.876,24.344,2.876v11.51c0,0-5.85-2.877-24.344-2.877c-18.493,0-24.343,2.877-24.343,2.877
			v-11.51C1371.403,580.359,1377.253,577.483,1395.746,577.483z"/>
		
			<path style="fill:#376280;stroke:#51222C;stroke-width:5.5779;stroke-linecap:round;stroke-linejoin:round;stroke-miterlimit:10;" d="
			M1395.746,806.901c18.493,0,24.344-2.876,24.344-2.876V792.52c0,0-5.85,2.876-24.344,2.876c-18.493,0-24.343-2.876-24.343-2.876
			v11.504C1371.403,804.024,1377.253,806.901,1395.746,806.901z"/>
		
			<path style="fill:#376280;stroke:#51222C;stroke-width:5.5779;stroke-linecap:round;stroke-linejoin:round;stroke-miterlimit:10;" d="
			M1395.746,817.425c18.493,0,24.344-2.882,24.344-2.882v-5.758c0,0-5.85,2.887-24.344,2.887c-18.493,0-24.343-2.887-24.343-2.887
			v5.758C1371.403,814.543,1377.253,817.425,1395.746,817.425z"/>
	</g>
	<g>
		
			<path style="fill:#EC7029;stroke:#512224;stroke-width:5.5779;stroke-linecap:round;stroke-linejoin:round;stroke-miterlimit:10;" d="
			M1274.068,819.614c0,0,10.595,5.213,24.343,5.213c13.749,0,24.349-5.213,24.349-5.213V651.063c0,0-5.851-2.881-24.349-2.881
			c-18.493,0-24.343,2.881-24.343,2.881V819.614z"/>
		
			<path style="fill:#F5A582;stroke:#51222C;stroke-width:5.5779;stroke-linecap:round;stroke-linejoin:round;stroke-miterlimit:10;" d="
			M1298.411,668.532c18.498,0,24.349,2.865,24.349,2.865v11.515c0,0-5.851-2.876-24.349-2.876c-18.493,0-24.343,2.876-24.343,2.876
			v-11.515C1274.068,671.397,1279.918,668.532,1298.411,668.532z"/>
		
			<path style="fill:#F5A582;stroke:#51222C;stroke-width:5.5779;stroke-linecap:round;stroke-linejoin:round;stroke-miterlimit:10;" d="
			M1298.411,712.371c18.498,0,24.349,2.887,24.349,2.887v54.058c0,0-5.851,1.982-24.349,1.982c-18.493,0-24.343-1.982-24.343-1.982
			v-54.058C1274.068,715.258,1279.918,712.371,1298.411,712.371z"/>
		
			<path style="fill:#F5A582;stroke:#51222C;stroke-width:5.5779;stroke-linecap:round;stroke-linejoin:round;stroke-miterlimit:10;" d="
			M1298.411,658.008c18.498,0,24.349,2.876,24.349,2.876v5.753c0,0-5.851-2.877-24.349-2.877c-18.493,0-24.343,2.877-24.343,2.877
			v-5.753C1274.068,660.884,1279.918,658.008,1298.411,658.008z"/>
	</g>
	<g>
		
			<path style="fill:#008587;stroke:#51222E;stroke-width:5.5779;stroke-linecap:round;stroke-linejoin:round;stroke-miterlimit:10;" d="
			M1322.76,819.614c0,0,10.589,5.213,24.337,5.213c13.749,0,24.349-5.213,24.349-5.213V594.745c0,0-5.851-2.876-24.349-2.876
			c-18.487,0-24.337,2.876-24.337,2.876V819.614z"/>
		
			<path style="fill:#76C5C1;stroke:#51222C;stroke-width:5.5779;stroke-linecap:round;stroke-linejoin:round;stroke-miterlimit:10;" d="
			M1347.098,599.767c18.498,0,24.349,2.865,24.349,2.865v11.51c0,0-5.851-2.876-24.349-2.876c-18.487,0-24.337,2.876-24.337,2.876
			v-11.51C1322.76,602.632,1328.61,599.767,1347.098,599.767z"/>
	</g>
	<g>
		
			<path style="fill:#E83B5F;stroke:#51222C;stroke-width:5.5779;stroke-linecap:round;stroke-linejoin:round;stroke-miterlimit:10;" d="
			M972.11,696.934c0,0-6.193,12.572-6.193,28.892c0,16.32,6.193,28.881,6.193,28.881h200.014c0,0,3.421-6.94,3.421-28.881
			c0-21.952-3.421-28.892-3.421-28.892H972.11z"/>
		
			<path style="fill:#D21B37;stroke:#51222C;stroke-width:5.5779;stroke-linecap:round;stroke-linejoin:round;stroke-miterlimit:10;" d="
			M1131.363,711.717c-7.79,0-14.114,6.319-14.114,14.108c0,7.79,6.324,14.103,14.114,14.103c7.784,0,14.092-6.313,14.092-14.103
			C1145.455,718.036,1139.147,711.717,1131.363,711.717z"/>
		
			<path style="fill:#D21B37;stroke:#51222C;stroke-width:5.5779;stroke-linecap:round;stroke-linejoin:round;stroke-miterlimit:10;" d="
			M1166.187,725.825c0,21.941-3.42,28.881-3.42,28.881h-13.656c0,0,3.415-6.94,3.415-28.881c0-21.952-3.415-28.892-3.415-28.892
			h13.656C1162.766,696.934,1166.187,703.873,1166.187,725.825z"/>
		
			<path style="fill:#D21B37;stroke:#51222C;stroke-width:5.5779;stroke-linecap:round;stroke-linejoin:round;stroke-miterlimit:10;" d="
			M987.193,725.825c0,21.941,3.421,28.881,3.421,28.881h13.651c0,0-3.421-6.94-3.421-28.881c0-21.952,3.421-28.892,3.421-28.892
			h-13.651C990.614,696.934,987.193,703.873,987.193,725.825z"/>
		
			<path style="fill:#D21B37;stroke:#51222C;stroke-width:5.5779;stroke-linecap:round;stroke-linejoin:round;stroke-miterlimit:10;" d="
			M974.703,725.825c0,21.941,3.416,28.881,3.416,28.881h6.831c0,0-3.415-6.94-3.415-28.881c0-21.952,3.415-28.892,3.415-28.892
			h-6.831C978.119,696.934,974.703,703.873,974.703,725.825z"/>
	</g>
	<g>
		
			<path style="fill:#4A2681;stroke:#51222C;stroke-width:5.5779;stroke-linecap:round;stroke-linejoin:round;stroke-miterlimit:10;" d="
			M954.565,754.706c0,0-7.294,14.817-7.294,34.034c0,19.218,7.294,34.023,7.294,34.023h235.606c0,0,4.015-8.176,4.015-34.023
			c0-25.852-4.015-34.034-4.015-34.034H954.565z"/>
		
			<path style="fill:#664A98;stroke:#51222C;stroke-width:5.5779;stroke-linecap:round;stroke-linejoin:round;stroke-miterlimit:10;" d="
			M1161.731,754.706c0,0,1.144,2.32,2.206,8.388c6.155,3.715,10.568,13.781,10.568,25.646c0,11.864-4.413,21.941-10.568,25.634
			c-1.062,6.068-2.206,8.389-2.206,8.389h-16.085c0,0,1.738-3.53,2.931-13.302c-3.415-4.989-5.572-12.419-5.572-20.721
			c0-8.313,2.157-15.742,5.572-20.721c-1.193-9.772-2.931-13.313-2.931-13.313H1161.731z"/>
		
			<path style="fill:#664A98;stroke:#51222C;stroke-width:5.5779;stroke-linecap:round;stroke-linejoin:round;stroke-miterlimit:10;" d="
			M972.333,788.74c0,25.847,4.02,34.023,4.02,34.023h16.102c0,0-4.031-8.176-4.031-34.023c0-25.852,4.031-34.034,4.031-34.034
			h-16.102C976.353,754.706,972.333,762.888,972.333,788.74z"/>
		
			<path style="fill:#664A98;stroke:#51222C;stroke-width:5.5779;stroke-linecap:round;stroke-linejoin:round;stroke-miterlimit:10;" d="
			M957.626,788.74c0,25.847,4.031,34.023,4.031,34.023h8.029c0,0-4.014-8.176-4.014-34.023c0-25.852,4.014-34.034,4.014-34.034
			h-8.029C961.657,754.706,957.626,762.888,957.626,788.74z"/>
	</g>
	<g>
		
			<path style="fill:#E83B5F;stroke:#51222C;stroke-width:5.5779;stroke-linecap:round;stroke-linejoin:round;stroke-miterlimit:10;" d="
			M584.954,818.536c0,0,12.572,6.193,28.886,6.193c16.32,0,28.886-6.193,28.886-6.193V618.5c0,0-6.94-3.41-28.886-3.41
			c-21.946,0-28.886,3.41-28.886,3.41V818.536z"/>
		
			<path style="fill:#D21B37;stroke:#51222C;stroke-width:5.5779;stroke-linecap:round;stroke-linejoin:round;stroke-miterlimit:10;" d="
			M599.737,659.283c0,7.778,6.308,14.108,14.103,14.108c7.795,0,14.103-6.33,14.103-14.108c0-7.795-6.308-14.108-14.103-14.108
			C606.045,645.175,599.737,651.488,599.737,659.283z"/>
		
			<path style="fill:#D21B37;stroke:#51222C;stroke-width:5.5779;stroke-linecap:round;stroke-linejoin:round;stroke-miterlimit:10;" d="
			M613.84,624.454c21.947,0,28.886,3.415,28.886,3.415v13.661c0,0-6.94-3.415-28.886-3.415c-21.946,0-28.886,3.415-28.886,3.415
			v-13.661C584.954,627.869,591.894,624.454,613.84,624.454z"/>
		
			<path style="fill:#D21B37;stroke:#51222C;stroke-width:5.5779;stroke-linecap:round;stroke-linejoin:round;stroke-miterlimit:10;" d="
			M613.84,803.447c21.947,0,28.886-3.41,28.886-3.41v-13.661c0,0-6.94,3.41-28.886,3.41c-21.946,0-28.886-3.41-28.886-3.41v13.661
			C584.954,800.037,591.894,803.447,613.84,803.447z"/>
		
			<path style="fill:#D21B37;stroke:#51222C;stroke-width:5.5779;stroke-linecap:round;stroke-linejoin:round;stroke-miterlimit:10;" d="
			M613.84,815.932c21.947,0,28.886-3.421,28.886-3.421v-6.825c0,0-6.94,3.415-28.886,3.415c-21.946,0-28.886-3.415-28.886-3.415
			v6.825C584.954,812.511,591.894,815.932,613.84,815.932z"/>
	</g>
	<g>
		
			<path style="fill:#4A2681;stroke:#51222C;stroke-width:5.5779;stroke-linecap:round;stroke-linejoin:round;stroke-miterlimit:10;" d="
			M642.726,817.425c0,0,14.816,7.304,34.028,7.304c19.223,0,34.029-7.304,34.029-7.304v-235.59c0,0-8.176-4.031-34.029-4.031
			c-25.847,0-34.028,4.031-34.028,4.031V817.425z"/>
		
			<path style="fill:#664A98;stroke:#51222C;stroke-width:5.5779;stroke-linecap:round;stroke-linejoin:round;stroke-miterlimit:10;" d="
			M642.726,610.269c0,0,2.326-1.144,8.394-2.212c3.693-6.155,13.776-10.567,25.634-10.567c11.864,0,21.947,4.412,25.64,10.567
			c6.068,1.068,8.389,2.212,8.389,2.212v16.08c0,0-3.53-1.743-13.313-2.931c-4.968,3.41-12.409,5.578-20.716,5.578
			c-8.307,0-15.737-2.168-20.715-5.578c-9.773,1.188-13.313,2.931-13.313,2.931V610.269z"/>
		
			<path style="fill:#664A98;stroke:#51222C;stroke-width:5.5779;stroke-linecap:round;stroke-linejoin:round;stroke-miterlimit:10;" d="
			M676.754,799.667c25.852,0,34.029-4.031,34.029-4.031V779.55c0,0-8.176,4.031-34.029,4.031c-25.847,0-34.028-4.031-34.028-4.031
			v16.086C642.726,795.636,650.908,799.667,676.754,799.667z"/>
		
			<path style="fill:#664A98;stroke:#51222C;stroke-width:5.5779;stroke-linecap:round;stroke-linejoin:round;stroke-miterlimit:10;" d="
			M676.754,814.374c25.852,0,34.029-4.031,34.029-4.031v-8.04c0,0-8.176,4.02-34.029,4.02c-25.847,0-34.028-4.02-34.028-4.02v8.04
			C642.726,810.343,650.908,814.374,676.754,814.374z"/>
	</g>
	<g>
		
			<path style="fill:#F69F26;stroke:#51222C;stroke-width:5.5779;stroke-linecap:round;stroke-linejoin:round;stroke-miterlimit:10;" d="
			M826.29,818.536c0,0,12.578,6.193,28.892,6.193c16.32,0,28.897-6.193,28.897-6.193V555.732c0,0-6.951-3.41-28.897-3.41
			c-21.947,0-28.892,3.41-28.892,3.41V818.536z"/>
		
			<path style="fill:#F9B65A;stroke:#51222C;stroke-width:5.5779;stroke-linecap:round;stroke-linejoin:round;stroke-miterlimit:10;" d="
			M855.182,561.681c21.947,0,28.897,3.42,28.897,3.42v13.662c0,0-6.951-3.421-28.897-3.421c-21.947,0-28.892,3.421-28.892,3.421
			v-13.662C826.29,565.101,833.235,561.681,855.182,561.681z"/>
		
			<path style="fill:#F9B65A;stroke:#51222C;stroke-width:5.5779;stroke-linecap:round;stroke-linejoin:round;stroke-miterlimit:10;" d="
			M855.182,803.447c21.947,0,28.897-3.41,28.897-3.41v-13.661c0,0-6.951,3.41-28.897,3.41c-21.947,0-28.892-3.41-28.892-3.41v13.661
			C826.29,800.037,833.235,803.447,855.182,803.447z"/>
		
			<path style="fill:#F9B65A;stroke:#51222C;stroke-width:5.5779;stroke-linecap:round;stroke-linejoin:round;stroke-miterlimit:10;" d="
			M855.182,815.932c21.947,0,28.897-3.421,28.897-3.421v-6.82c0,0-6.951,3.41-28.897,3.41c-21.947,0-28.892-3.41-28.892-3.41v6.82
			C826.29,812.511,833.235,815.932,855.182,815.932z"/>
	</g>
	<g>
		
			<path style="fill:#EC7029;stroke:#512224;stroke-width:5.5779;stroke-linecap:round;stroke-linejoin:round;stroke-miterlimit:10;" d="
			M710.783,818.536c0,0,12.572,6.193,28.897,6.193c16.303,0,28.886-6.193,28.886-6.193V618.5c0,0-6.945-3.41-28.886-3.41
			c-21.947,0-28.897,3.41-28.897,3.41V818.536z"/>
		
			<path style="fill:#F5A582;stroke:#51222C;stroke-width:5.5779;stroke-linecap:round;stroke-linejoin:round;stroke-miterlimit:10;" d="
			M739.68,639.232c21.941,0,28.886,3.415,28.886,3.415v13.656c0,0-6.945-3.415-28.886-3.415c-21.947,0-28.897,3.415-28.897,3.415
			v-13.656C710.783,642.647,717.733,639.232,739.68,639.232z"/>
		
			<path style="fill:#F5A582;stroke:#51222C;stroke-width:5.5779;stroke-linecap:round;stroke-linejoin:round;stroke-miterlimit:10;" d="
			M739.68,691.263c21.941,0,28.886,3.415,28.886,3.415v64.157c0,0-6.945,2.364-28.886,2.364c-21.947,0-28.897-2.364-28.897-2.364
			v-64.157C710.783,694.678,717.733,691.263,739.68,691.263z"/>
		
			<path style="fill:#F5A582;stroke:#51222C;stroke-width:5.5779;stroke-linecap:round;stroke-linejoin:round;stroke-miterlimit:10;" d="
			M739.68,626.753c21.941,0,28.886,3.41,28.886,3.41v6.82c0,0-6.945-3.41-28.886-3.41c-21.947,0-28.897,3.41-28.897,3.41v-6.82
			C710.783,630.162,717.733,626.753,739.68,626.753z"/>
	</g>
	<g>
		
			<path style="fill:#008587;stroke:#51222E;stroke-width:5.5779;stroke-linecap:round;stroke-linejoin:round;stroke-miterlimit:10;" d="
			M768.566,818.536c0,0,12.572,6.193,28.886,6.193s28.892-6.193,28.892-6.193V582.173c0,0-6.945-3.41-28.892-3.41
			c-21.941,0-28.886,3.41-28.886,3.41V818.536z"/>
		
			<path style="fill:#75C4B6;stroke:#51222C;stroke-width:5.5779;stroke-linecap:round;stroke-linejoin:round;stroke-miterlimit:10;" d="
			M797.453,588.121c21.947,0,28.892,3.41,28.892,3.41v13.661c0,0-6.945-3.41-28.892-3.41c-21.941,0-28.886,3.41-28.886,3.41v-13.661
			C768.566,591.531,775.511,588.121,797.453,588.121z"/>
	</g>
	<g>
		
			<polygon style="fill:#B92D43;stroke:#51222C;stroke-width:11.1558;stroke-linecap:round;stroke-linejoin:round;stroke-miterlimit:10;" points="
			444.286,1340.586 586.947,1339.97 611.405,1157.785 419.317,1157.785 		"/>
		
			<path style="fill:#E83B5F;stroke:#51222C;stroke-width:11.1558;stroke-linecap:round;stroke-linejoin:round;stroke-miterlimit:10;" d="
			M412.823,1157.785V1125.2c0-6.613,5.371-11.984,11.984-11.984h181.107c6.613,0,11.984,5.37,11.984,11.984v32.585H412.823z"/>
		<g>
			
				<path style="fill:#98AC52;stroke:#51222C;stroke-width:11.1558;stroke-linecap:round;stroke-linejoin:round;stroke-miterlimit:10;" d="
				M582.045,1113.216H446.977c-19.969-91.899-34.71-214.025,73.243-214.025C598.735,899.192,626.374,974.619,582.045,1113.216z"/>
			<g>
				<path style="fill:#51222C;" d="M574.691,1091.024c-0.746,7.397-1.493,14.795-2.223,22.192h-3.65
					c3.007-31.463,6.085-62.926,8.563-94.454c1.683-21.402,3.181-42.924-1.645-64.799c-3.873-17.573-12.234-42.787-48.469-52.887
					c18.346,20.422,21.402,41.404,25.09,62.446c4.842,27.628,2.135,54.929-0.703,81.931c-2.381,22.589-4.761,45.179-7.152,67.763
					h-3.029c2.637-23.782,4.853-47.62,7.376-71.423c2.985-28.107,4.576-56.313-0.632-85.063
					c-3.345-18.488-7.059-36.692-22.611-54.624c-2.315,24.229-6.58,48.261-8.928,72.501c-3.584,37.068-6.275,74.223-8.345,111.449
					c-0.507,9.053-0.981,18.106-1.427,27.16h-3.688c1.487-30.265,3.383-60.496,5.442-90.717c2.195-32.362,4.407-64.766,9.423-96.818
					c1.258-8.067,2.25-16.266,5.469-24.044c-20.045,10.742-23.88,28.325-27.737,43.316c-4.467,17.371-6.896,35.047-9.223,52.69
					c-2.576,19.55-5.746,39.149-6.629,58.878c-0.839,18.885-1.547,37.792-2.201,56.694h-3.513
					c0.659-15.339,1.307-30.69,1.989-46.023c1.362-30.902,5.757-61.58,10.698-92.084c2.92-18.036,5.681-36.463,14.446-53.578
					c4.009-7.816,9.968-15.214,20.547-20.819c-29.769,2.364-45.287,16.048-53.862,29.753c-10.6,16.929-13.165,35.722-14.707,54.085
					c-2.462,29.257-2.266,58.867-2.212,88.364c0.022,13.427,0.207,26.86,0.431,40.304h-4.603c-0.006-0.937-0.016-1.874-0.022-2.816
					c-0.234-30.728-0.436-61.455,0.991-92.035c1.552-33.522-1.836-70.852,26.898-99.699c9.364-9.402,24.212-17.568,45.375-19.474
					c3.432,0.213,7.005,0.561,10.72,1.051c21.031,5.731,32.116,18.782,38.577,29.638c9.991,16.783,11.777,34.241,12.404,50.92
					c0.561,14.953-0.943,29.703-1.885,44.519C578.646,1047.267,576.892,1069.159,574.691,1091.024z"/>
			</g>
		</g>
	</g>
	<g>
		<g>
			
				<path style="fill:#98AC52;stroke:#51222C;stroke-width:11.6754;stroke-linecap:round;stroke-linejoin:round;stroke-miterlimit:10;" d="
				M213.136,1019.348c0.496-0.297,1.106-0.286,1.618,0.027c31.583,19.389,60.752,47.927,84.349,82.538
				c11.226,16.469,20.274,33.012,27.094,49.488c5.082,12.305,11.15,47.183,11.913,77.499h-3.274
				c-0.926-26.92-6.749-64.296-11.603-76.119c-8.993-21.878-21.952-43.727-38.746-65.309
				c-21.195-27.217-45.217-49.166-71.396-65.229c-0.512-0.318-0.8-0.833-0.795-1.414
				C212.303,1020.225,212.635,1019.645,213.136,1019.348z"/>
			
				<path style="fill:#98AC52;stroke:#51222C;stroke-width:11.6754;stroke-linecap:round;stroke-linejoin:round;stroke-miterlimit:10;" d="
				M217.352,1022.951c-10.981-40.164-51.351-46.873-83.45-65.077C151.36,984.571,183.024,1018.207,217.352,1022.951
				L217.352,1022.951z"/>
			
				<path style="fill:#98AC52;stroke:#51222C;stroke-width:11.6754;stroke-linecap:round;stroke-linejoin:round;stroke-miterlimit:10;" d="
				M265.462,1062.721c0.904-22.225,1.662-40.75-4.282-63.454c-5.774-22.129-15.094-43.86-28.434-62.588l0,0l0,0
				c0.751,8.939-3.966,20.068-4.347,29.33c-0.861,11.834,1.83,23.27,5.076,34.538c5.044,17.467,12.006,33.154,22.922,47.704
				L265.462,1062.721z"/>
			
				<path style="fill:#939E30;stroke:#51222C;stroke-width:11.6754;stroke-linecap:round;stroke-linejoin:round;stroke-miterlimit:10;" d="
				M235.241,1035.902c-27.088,22.462-75.851,7.844-104.705,0.913c23.499-7.389,56.285-5.861,80.536-4.319L235.241,1035.902z"/>
			
				<path style="fill:#98AC52;stroke:#51222C;stroke-width:11.6754;stroke-linecap:round;stroke-linejoin:round;stroke-miterlimit:10;" d="
				M274.656,1073.496c-24.969,29.779-72.866,39.334-109.144,23.559c0,0,21.717-9.32,30.803-13.771
				c13.035-5.594,27.29-9.094,41.224-9.448L274.656,1073.496z"/>
			
				<path style="fill:#608130;stroke:#51222C;stroke-width:11.6754;stroke-linecap:round;stroke-linejoin:round;stroke-miterlimit:10;" d="
				M282.751,1082.644c15.503-20.334,21.179-57.882,12.905-82.336c-5.703,7.745-7.522,20.476-10.311,29.826
				c-4.87,14.833-6.537,28.126-4.401,43.989L282.751,1082.644z"/>
			
				<path style="fill:#939E30;stroke:#51222C;stroke-width:11.6754;stroke-linecap:round;stroke-linejoin:round;stroke-miterlimit:10;" d="
				M293.177,1096.422c-17.824,18.33-39.792,18.951-64.397,12.708c0,0,17.164-8.944,25.188-11.431
				c7.44-2.555,16.461-3.718,24.599-2.633L293.177,1096.422z"/>
			
				<path style="fill:#939E30;stroke:#51222C;stroke-width:11.6754;stroke-linecap:round;stroke-linejoin:round;stroke-miterlimit:10;" d="
				M307.165,1116.958c0.741,14.159-7.289,23.338-19.098,31.01c0,0,2.816-10.363,4.837-14.566c1.765-3.995,4.69-8.111,8.193-11.014
				L307.165,1116.958z"/>
			
				<path style="fill:#608130;stroke:#51222C;stroke-width:11.6754;stroke-linecap:round;stroke-linejoin:round;stroke-miterlimit:10;" d="
				M308.657,1120.115c13.074,5.52,24.436,1.084,35.657-7.432c0,0-10.709-0.856-15.339-0.387c-4.357,0.295-9.222,1.651-13.144,3.966
				L308.657,1120.115z"/>
			
				<path style="fill:#939E30;stroke:#51222C;stroke-width:11.6754;stroke-linecap:round;stroke-linejoin:round;stroke-miterlimit:10;" d="
				M257.792,1055.258c-16.701,18.248-76.413,16.467-98.408,9.993c0,0,28.277-7.748,55.921-11.352
				C242.943,1050.302,257.792,1055.258,257.792,1055.258z"/>
			
				<path style="fill:#939E30;stroke:#51222C;stroke-width:11.6754;stroke-linecap:round;stroke-linejoin:round;stroke-miterlimit:10;" d="
				M229.729,1031.432c3.453-20.74-12.365-60.567-25.842-83.461c-3.028,18.043,4.423,60.708,24.186,82.263L229.729,1031.432z"/>
			
				<path style="fill:#98AC52;stroke:#51222C;stroke-width:11.6754;stroke-linecap:round;stroke-linejoin:round;stroke-miterlimit:10;" d="
				M302.797,1110.618c8.465-6.659,14.326-20.165,16.919-32.59c3.851-17.6,4.804-35.728,3.039-53.766
				c-14.37,19.253-24.088,61.419-20.677,85.158L302.797,1110.618z"/>
			
				<path style="fill:#608130;stroke:#51222C;stroke-width:11.6754;stroke-linecap:round;stroke-linejoin:round;stroke-miterlimit:10;" d="
				M304.093,1112.464c-21.68,21.361-50.539,30.373-80.956,8.933c11.973-1.395,30.499-5.78,46.786-6.801
				C286.21,1113.581,304.093,1112.464,304.093,1112.464z"/>
			
				<path style="fill:#939E30;stroke:#51222C;stroke-width:11.6754;stroke-linecap:round;stroke-linejoin:round;stroke-miterlimit:10;" d="
				M306.686,1116.146c17.322-1.492,30.188-20.955,35.216-35.782c-11.422,5.17-25.945,16.851-30.913,28.099L306.686,1116.146z"/>
		</g>
		<g>
			
				<path style="fill:#98AC52;stroke:#51222C;stroke-width:11.6754;stroke-linecap:round;stroke-linejoin:round;stroke-miterlimit:10;" d="
				M401.515,1133.673c1.138,19.713,0.262,77.211,4.755,95.227h-4.984c-4.385-17.93-3.443-75.446-4.543-95.227
				c-1.356-24.389-0.201-50.106,3.448-76.974c8.247-60.583,27.737-116.874,56.334-162.793c0.469-0.741,1.258-1.163,2.103-1.095
				c0.85,0.068,1.667,0.615,2.059,1.397c0.392,0.757,0.349,1.618-0.12,2.358c-23.706,38.054-40.766,82.383-50.702,131.753
				C402.392,1065.482,399.614,1100.709,401.515,1133.673z"/>
			
				<path style="fill:#98AC52;stroke:#51222C;stroke-width:11.6754;stroke-linecap:round;stroke-linejoin:round;stroke-miterlimit:10;" d="
				M455.475,900.268c-11.853-59.608,36.49-94.696,66.548-139.404C516.619,807.116,497.206,871.695,455.475,900.268L455.475,900.268z
				"/>
			
				<path style="fill:#98AC52;stroke:#51222C;stroke-width:11.6754;stroke-linecap:round;stroke-linejoin:round;stroke-miterlimit:10;" d="
				M418.581,983.579c-15.688-28.434-28.75-52.14-35.799-85.656c-6.885-32.669-8.879-67.114-3.682-100.282l0,0l0,0
				c4.858,12.166,18.28,23.613,24.817,35.472c8.84,14.9,12.773,31.583,15.873,48.417c4.815,26.097,5.948,51.13,1.188,77.241
				L418.581,983.579z"/>
			
				<path style="fill:#939E30;stroke:#51222C;stroke-width:11.6754;stroke-linecap:round;stroke-linejoin:round;stroke-miterlimit:10;" d="
				M440.555,928.846c50.016,11.668,104.177-39.206,137.334-67.076c-35.504,5.671-77.328,29.044-107.985,46.873L440.555,928.846z"/>
			
				<path style="fill:#98AC52;stroke:#51222C;stroke-width:11.6754;stroke-linecap:round;stroke-linejoin:round;stroke-miterlimit:10;" d="
				M413.581,1003.652c52.037,22.617,120.807,3.848,157.918-40.402c0,0-34.453,1.989-49.215,2.097
				c-20.672,1.198-41.562,5.918-59.995,14.538L413.581,1003.652z"/>
			
				<path style="fill:#608130;stroke:#51222C;stroke-width:11.6754;stroke-linecap:round;stroke-linejoin:round;stroke-miterlimit:10;" d="
				M408.972,1020.887c-33.489-16.464-65.398-61.787-70.53-99.132c12.496,6.4,23.167,21.84,32.912,32.234
				c16.036,16.194,26.876,32.471,34.426,54.583L408.972,1020.887z"/>
			
				<path style="fill:#939E30;stroke:#51222C;stroke-width:11.6754;stroke-linecap:round;stroke-linejoin:round;stroke-miterlimit:10;" d="
				M404.353,1045.674c35.227,12.313,64.331-1.204,92.389-25.403c0,0-28.255-0.49-40.347,1.503
				c-11.385,1.512-23.924,5.877-33.849,12.599L404.353,1045.674z"/>
			
				<path style="fill:#939E30;stroke:#51222C;stroke-width:11.6754;stroke-linecap:round;stroke-linejoin:round;stroke-miterlimit:10;" d="
				M399.473,1081.601c8.269,18.994,24.741,25.751,45.179,28.058c0,0-10.453-11.69-15.829-15.871
				c-4.902-4.064-11.412-7.525-17.888-9.034L399.473,1081.601z"/>
			
				<path style="fill:#608130;stroke:#51222C;stroke-width:11.6754;stroke-linecap:round;stroke-linejoin:round;stroke-miterlimit:10;" d="
				M399.593,1086.71c-13.487,15.721-31.212,17.341-51.426,13.55c0,0,13.421-8.114,19.784-10.518
				c5.883-2.451,13.122-3.854,19.757-3.386L399.593,1086.71z"/>
			
				<path style="fill:#939E30;stroke:#51222C;stroke-width:11.6754;stroke-linecap:round;stroke-linejoin:round;stroke-miterlimit:10;" d="
				M423.724,968.831c33.712,12.935,110.522-28.317,135.046-51.108c0,0-41.987,8.312-80.444,21.63
				C439.879,952.68,423.724,968.831,423.724,968.831z"/>
			
				<path style="fill:#939E30;stroke:#51222C;stroke-width:11.6754;stroke-linecap:round;stroke-linejoin:round;stroke-miterlimit:10;" d="
				M444.842,919.423c-18.047-24.834-23.352-87.16-20.683-125.854c15.731,21.584,33.816,82.173,22.061,123.207L444.842,919.423z"/>
			
				<path style="fill:#98AC52;stroke:#51222C;stroke-width:11.6754;stroke-linecap:round;stroke-linejoin:round;stroke-miterlimit:10;" d="
				M401.047,1070.483c-15.388-3.181-31.86-17-43.354-31.531c-16.505-20.473-29.567-43.536-39.018-68.245
				c31.316,15.786,71.505,64.511,82.519,97.747L401.047,1070.483z"/>
			
				<path style="fill:#608130;stroke:#51222C;stroke-width:11.6754;stroke-linecap:round;stroke-linejoin:round;stroke-miterlimit:10;" d="
				M400.551,1073.732c42.248,13.773,85.814,6.727,111.558-41.126c-16.548,5.997-43.6,12.349-65.54,21.642
				C424.638,1063.541,400.551,1073.732,400.551,1073.732z"/>
			
				<path style="fill:#939E30;stroke:#51222C;stroke-width:11.6754;stroke-linecap:round;stroke-linejoin:round;stroke-miterlimit:10;" d="
				M399.576,1080.239c-23.602,9.347-53.093-7.68-69.326-23.769c18.292-0.694,44.874,5.096,58.688,16.546L399.576,1080.239z"/>
		</g>
		
			<polygon style="fill:#ED7939;stroke:#512224;stroke-width:11.6754;stroke-linecap:round;stroke-linejoin:round;stroke-miterlimit:10;" points="
			310.858,1340.586 426.229,1340.09 446.013,1192.755 290.671,1192.755 		"/>
		
			<path style="fill:#F49758;stroke:#51222C;stroke-width:11.6754;stroke-linecap:round;stroke-linejoin:round;stroke-miterlimit:10;" d="
			M285.42,1192.755v-26.348c0-5.355,4.341-9.693,9.686-9.693h146.463c5.349,0,9.685,4.339,9.685,9.693v26.348H285.42z"/>
	</g>
	<g>
		<g>
			
				<path style="fill:#008587;stroke:#51222E;stroke-width:5.5779;stroke-linecap:round;stroke-linejoin:round;stroke-miterlimit:10;" d="
				M1639.42,1018.664h196.544l0,0c16.99,0,30.755-13.771,30.755-30.755c0-16.984-13.765-30.76-30.755-30.76l0,0H1639.42
				c-1.841,0-3.344-1.487-3.344-3.34c0-1.841,1.503-3.333,3.344-3.333h196.544c20.667,0,37.428,16.761,37.428,37.433
				c0,20.667-16.761,37.428-37.428,37.428l0,0H1639.42c-1.841,0-3.344-1.487-3.344-3.34
				C1636.075,1020.157,1637.578,1018.664,1639.42,1018.664z"/>
			<g>
				
					<path style="fill:#DDD6D5;stroke:#51222C;stroke-width:5.5779;stroke-linecap:round;stroke-linejoin:round;stroke-miterlimit:10;" d="
					M1641.086,957.144h186.81c16.99,0,30.76,13.77,30.76,30.765c0,16.984-13.771,30.765-30.76,30.765h-186.81V957.144z"/>
				
					<path style="fill:#C6BCB7;stroke:#51222C;stroke-width:5.5779;stroke-linecap:round;stroke-linejoin:round;stroke-miterlimit:10;" d="
					M1641.086,1011.038h191.228c18.215,0,26.343-14.13,26.343-23.129c0-16.995-13.771-30.765-30.76-30.765h8.024
					c16.995,0,30.771,13.77,30.771,30.765c0,16.984-13.776,30.765-30.771,30.765h-194.834V1011.038z"/>
			</g>
			<g>
				<line style="fill:#51222C;" x1="1817.792" y1="969.145" x2="1670.054" y2="969.145"/>
				<line style="fill:#51222C;" x1="1849.92" y1="987.91" x2="1737.256" y2="987.91"/>
				<line style="fill:#51222C;" x1="1788.41" y1="1004.442" x2="1641.086" y2="1004.442"/>
				<line style="fill:#51222C;" x1="1798.291" y1="994.697" x2="1641.086" y2="994.697"/>
				<line style="fill:#51222C;" x1="1798.291" y1="977.419" x2="1641.086" y2="977.419"/>
				<line style="fill:#51222C;" x1="1703.434" y1="963.136" x2="1641.086" y2="963.136"/>
				<line style="fill:#51222C;" x1="1821.17" y1="1013.152" x2="1652.122" y2="1013.152"/>
				<line style="fill:#51222C;" x1="1826.54" y1="981.346" x2="1765.712" y2="981.346"/>
			</g>
		</g>
		<g>
			
				<path style="fill:#DDD6D5;stroke:#51222C;stroke-width:5.5779;stroke-linecap:round;stroke-linejoin:round;stroke-miterlimit:10;" d="
				M1627.436,1037.19h221.389c12.735,0,23.063,10.398,23.063,23.221c0,12.833-10.328,23.226-23.063,23.226h-221.389V1037.19z"/>
			
				<path style="fill:#2EA437;stroke:#51222C;stroke-width:5.5779;stroke-linecap:round;stroke-linejoin:round;stroke-miterlimit:10;" d="
				M1625.638,1083.638h229.281c12.703-0.131,22.987-10.496,22.987-23.226c0-12.725-10.284-23.091-22.987-23.221h-229.281
				c-3.269,0-5.927-2.653-5.927-5.932c0-3.263,2.658-5.921,5.927-5.921h232.114c17.911,1.563,32.008,16.771,32.008,35.074
				c0,18.313-14.097,33.521-32.008,35.079l-232.114,0.005c-3.269,0-5.927-2.663-5.927-5.932
				C1619.712,1086.296,1622.37,1083.638,1625.638,1083.638z"/>
			<g>
				<line style="fill:#51222C;" x1="1821.022" y1="1045.802" x2="1652.209" y2="1045.802"/>
				<line style="fill:#51222C;" x1="1848.503" y1="1060.411" x2="1729.2" y2="1060.411"/>
				<line style="fill:#51222C;" x1="1795.894" y1="1070.902" x2="1627.436" y2="1070.902"/>
				<line style="fill:#51222C;" x1="1804.348" y1="1064.682" x2="1627.436" y2="1064.682"/>
				<line style="fill:#51222C;" x1="1804.348" y1="1052.884" x2="1627.436" y2="1052.884"/>
				<line style="fill:#51222C;" x1="1680.747" y1="1040.66" x2="1627.436" y2="1040.66"/>
				<line style="fill:#51222C;" x1="1823.909" y1="1074.541" x2="1636.865" y2="1074.541"/>
				<line style="fill:#51222C;" x1="1828.501" y1="1056.233" x2="1753.526" y2="1056.233"/>
			</g>
			
				<path style="fill:#C6BCB7;stroke:#51222C;stroke-width:5.5779;stroke-linecap:round;stroke-linejoin:round;stroke-miterlimit:10;" d="
				M1849.816,1077.199c16.924,0,22.072-11.978,22.072-16.788c0-12.823-10.328-23.221-23.063-23.221h6.019
				c12.735,0,23.063,10.398,23.063,23.221c0,12.833-10.328,23.226-23.063,23.226h-227.408v-6.439H1849.816z"/>
		</g>
		<g>
			
				<path style="fill:#DDD6D5;stroke:#51222C;stroke-width:5.5779;stroke-linecap:round;stroke-linejoin:round;stroke-miterlimit:10;" d="
				M1639.654,1102.932h195.209c13.962,0,25.286,11.406,25.286,25.46c0,14.064-11.324,25.46-25.286,25.46h-195.209V1102.932z"/>
			
				<path style="fill:#E85811;stroke:#512224;stroke-width:5.5779;stroke-linecap:round;stroke-linejoin:round;stroke-miterlimit:10;" d="
				M1638.978,1153.797h202.607h0.006h0.016c13.858-0.141,25.133-11.537,25.133-25.405c0-13.863-11.276-25.253-25.133-25.395h-0.016
				h-0.006h-202.607c-2.064,0-3.742-1.688-3.742-3.747c0-2.07,1.678-3.753,3.742-3.753h205.336
				c8.111,0.724,15.639,4.472,21.205,10.557c5.621,6.122,8.716,14.059,8.716,22.339c0,8.279-3.094,16.222-8.716,22.35
				c-5.567,6.074-13.095,9.821-21.205,10.551h-205.336c-2.064,0-3.742-1.678-3.742-3.748
				C1635.236,1155.48,1636.914,1153.797,1638.978,1153.797z"/>
			<g>
				<line style="fill:#51222C;" x1="1792.005" y1="1112.377" x2="1691.08" y2="1112.377"/>
				<line style="fill:#51222C;" x1="1834.504" y1="1128.392" x2="1716.818" y2="1128.392"/>
				<line style="fill:#51222C;" x1="1764.47" y1="1139.885" x2="1639.654" y2="1139.885"/>
				<line style="fill:#51222C;" x1="1773.73" y1="1133.076" x2="1639.654" y2="1133.076"/>
				<line style="fill:#51222C;" x1="1773.73" y1="1120.134" x2="1639.654" y2="1120.134"/>
				<line style="fill:#51222C;" x1="1722.369" y1="1106.745" x2="1639.654" y2="1106.745"/>
				<line style="fill:#51222C;" x1="1795.175" y1="1143.873" x2="1687.692" y2="1143.873"/>
				<line style="fill:#51222C;" x1="1800.208" y1="1123.816" x2="1743.493" y2="1123.816"/>
			</g>
			
				<path style="fill:#C6BCB7;stroke:#51222C;stroke-width:5.5779;stroke-linecap:round;stroke-linejoin:round;stroke-miterlimit:10;" d="
				M1835.948,1146.798c18.547,0,24.201-13.128,24.201-18.406c0-14.054-11.324-25.46-25.286-25.46h6.596
				c13.962,0,25.281,11.406,25.281,25.46c0,14.064-11.319,25.46-25.281,25.46h-201.806v-7.054H1835.948z"/>
		</g>
		<g>
			
				<path style="fill:#92B545;stroke:#51222C;stroke-width:5.5779;stroke-linecap:round;stroke-linejoin:round;stroke-miterlimit:10;" d="
				M1650.673,1223.161c0,0-6.531-13.269-6.531-30.482c0-17.214,6.531-30.483,6.531-30.483h211.051c0,0,3.601,7.327,3.601,30.483
				c0,23.161-3.601,30.482-3.601,30.482H1650.673z"/>
			
				<path style="fill:#BDC042;stroke:#51222C;stroke-width:5.5779;stroke-linecap:round;stroke-linejoin:round;stroke-miterlimit:10;" d="
				M1818.707,1207.561c-8.225,0-14.881-6.662-14.881-14.881c0-8.214,6.656-14.882,14.881-14.882c8.214,0,14.871,6.667,14.871,14.882
				C1833.578,1200.899,1826.921,1207.561,1818.707,1207.561z"/>
			
				<path style="fill:#BDC042;stroke:#51222C;stroke-width:5.5779;stroke-linecap:round;stroke-linejoin:round;stroke-miterlimit:10;" d="
				M1855.443,1192.679c0-23.156-3.595-30.483-3.595-30.483h-14.413c0,0,3.606,7.327,3.606,30.483
				c0,23.161-3.606,30.482-3.606,30.482h14.413C1851.848,1223.161,1855.443,1215.841,1855.443,1192.679z"/>
			
				<path style="fill:#BDC042;stroke:#51222C;stroke-width:5.5779;stroke-linecap:round;stroke-linejoin:round;stroke-miterlimit:10;" d="
				M1666.595,1192.679c0-23.156,3.6-30.483,3.6-30.483h14.408c0,0-3.601,7.327-3.601,30.483c0,23.161,3.601,30.482,3.601,30.482
				h-14.408C1670.196,1223.161,1666.595,1215.841,1666.595,1192.679z"/>
			
				<path style="fill:#BDC042;stroke:#51222C;stroke-width:5.5779;stroke-linecap:round;stroke-linejoin:round;stroke-miterlimit:10;" d="
				M1653.418,1192.679c0-23.156,3.606-30.483,3.606-30.483h7.201c0,0-3.605,7.327-3.605,30.483c0,23.161,3.605,30.482,3.605,30.482
				h-7.201C1657.025,1223.161,1653.418,1215.841,1653.418,1192.679z"/>
		</g>
		<g>
			
				<path style="fill:#24465E;stroke:#51222C;stroke-width:5.5779;stroke-linecap:round;stroke-linejoin:round;stroke-miterlimit:10;" d="
				M1601.474,1284.126c0,0-6.536-13.269-6.536-30.483c0-17.213,6.536-30.482,6.536-30.482h309.453c0,0,3.601,7.332,3.601,30.482
				c0,23.162-3.601,30.483-3.601,30.483H1601.474z"/>
			
				<path style="fill:#376280;stroke:#51222C;stroke-width:5.5779;stroke-linecap:round;stroke-linejoin:round;stroke-miterlimit:10;" d="
				M1904.653,1253.644c0-23.151-3.606-30.482-3.606-30.482h-14.413c0,0,3.606,7.332,3.606,30.482
				c0,23.162-3.606,30.483-3.606,30.483h14.413C1901.047,1284.126,1904.653,1276.805,1904.653,1253.644z"/>
			
				<path style="fill:#376280;stroke:#51222C;stroke-width:5.5779;stroke-linecap:round;stroke-linejoin:round;stroke-miterlimit:10;" d="
				M1617.391,1253.644c0-23.151,3.606-30.482,3.606-30.482h14.408c0,0-3.601,7.332-3.601,30.482c0,23.162,3.601,30.483,3.601,30.483
				h-14.408C1620.997,1284.126,1617.391,1276.805,1617.391,1253.644z"/>
			
				<path style="fill:#376280;stroke:#51222C;stroke-width:5.5779;stroke-linecap:round;stroke-linejoin:round;stroke-miterlimit:10;" d="
				M1604.22,1253.644c0-23.151,3.606-30.482,3.606-30.482h7.201c0,0-3.606,7.332-3.606,30.482c0,23.162,3.606,30.483,3.606,30.483
				h-7.201C1607.826,1284.126,1604.22,1276.805,1604.22,1253.644z"/>
		</g>
		<g>
			
				<path style="fill:#008587;stroke:#51222E;stroke-width:5.5779;stroke-linecap:round;stroke-linejoin:round;stroke-miterlimit:10;" d="
				M1615.419,1345.036c0,0-6.531-13.269-6.531-30.482c0-17.213,6.531-30.483,6.531-30.483h281.564c0,0,3.595,7.321,3.595,30.483
				c0,23.156-3.595,30.482-3.595,30.482H1615.419z"/>
			
				<path style="fill:#76C5C1;stroke:#51222C;stroke-width:5.5779;stroke-linecap:round;stroke-linejoin:round;stroke-miterlimit:10;" d="
				M1890.697,1314.554c0-23.161-3.595-30.483-3.595-30.483h-14.413c0,0,3.606,7.321,3.606,30.483
				c0,23.156-3.606,30.482-3.606,30.482h14.413C1887.102,1345.036,1890.697,1337.709,1890.697,1314.554z"/>
		</g>
	</g>
	<g>
		<g>
			
				<path style="fill:#98AC52;stroke:#51222C;stroke-width:11.1558;stroke-linecap:round;stroke-linejoin:round;stroke-miterlimit:10;" d="
				M1764.742,923.151c0.643-0.393,1.433-0.376,2.113,0.044c41.246,25.318,79.354,62.598,110.169,107.804
				c14.669,21.511,26.495,43.126,35.391,64.642c6.646,16.08,14.566,61.635,15.562,101.23h-4.276
				c-1.199-35.167-8.814-83.973-15.154-99.421c-11.744-28.587-28.674-57.124-50.615-85.303
				c-27.682-35.559-59.058-64.221-93.25-85.215c-0.67-0.414-1.046-1.079-1.04-1.841
				C1763.647,924.306,1764.078,923.544,1764.742,923.151z"/>
			
				<path style="fill:#98AC52;stroke:#51222C;stroke-width:11.1558;stroke-linecap:round;stroke-linejoin:round;stroke-miterlimit:10;" d="
				M1770.238,927.858c-14.337-52.456-67.071-61.226-108.998-84.998C1684.053,877.727,1725.408,921.659,1770.238,927.858
				L1770.238,927.858z"/>
			
				<path style="fill:#98AC52;stroke:#51222C;stroke-width:11.1558;stroke-linecap:round;stroke-linejoin:round;stroke-miterlimit:10;" d="
				M1833.082,979.813c1.182-29.039,2.173-53.241-5.583-82.884c-7.544-28.914-19.718-57.293-37.144-81.751l0,0l0,0
				c0.981,11.668-5.191,26.207-5.681,38.305c-1.122,15.47,2.391,30.395,6.64,45.113c6.58,22.818,15.677,43.305,29.932,62.316
				L1833.082,979.813z"/>
			
				<path style="fill:#939E30;stroke:#51222C;stroke-width:11.1558;stroke-linecap:round;stroke-linejoin:round;stroke-miterlimit:10;" d="
				M1793.606,944.776c-35.379,29.339-99.078,10.252-136.761,1.198c30.695-9.658,73.515-7.664,105.19-5.643L1793.606,944.776z"/>
			
				<path style="fill:#98AC52;stroke:#51222C;stroke-width:11.1558;stroke-linecap:round;stroke-linejoin:round;stroke-miterlimit:10;" d="
				M1845.099,993.877c-32.612,38.909-95.178,51.378-142.574,30.777c0,0,28.375-12.169,40.244-17.987
				c17.028-7.299,35.641-11.875,53.839-12.343L1845.099,993.877z"/>
			
				<path style="fill:#608130;stroke:#51222C;stroke-width:11.1558;stroke-linecap:round;stroke-linejoin:round;stroke-miterlimit:10;" d="
				M1855.677,1005.834c20.23-26.566,27.661-75.601,16.848-107.554c-7.447,10.12-9.822,26.751-13.471,38.963
				c-6.368,19.376-8.535,36.741-5.746,57.462L1855.677,1005.834z"/>
			
				<path style="fill:#939E30;stroke:#51222C;stroke-width:11.1558;stroke-linecap:round;stroke-linejoin:round;stroke-miterlimit:10;" d="
				M1869.284,1023.826c-23.281,23.945-51.976,24.758-84.109,16.603c0,0,22.421-11.69,32.896-14.925
				c9.718-3.344,21.505-4.859,32.138-3.443L1869.284,1023.826z"/>
			
				<path style="fill:#939E30;stroke:#51222C;stroke-width:11.1558;stroke-linecap:round;stroke-linejoin:round;stroke-miterlimit:10;" d="
				M1887.554,1050.647c0.981,18.509-9.511,30.493-24.948,40.516c0,0,3.693-13.536,6.324-19.032
				c2.304-5.208,6.128-10.589,10.714-14.38L1887.554,1050.647z"/>
			
				<path style="fill:#608130;stroke:#51222C;stroke-width:11.1558;stroke-linecap:round;stroke-linejoin:round;stroke-miterlimit:10;" d="
				M1889.504,1054.782c17.077,7.201,31.921,1.411,46.584-9.712c0,0-13.988-1.122-20.046-0.512
				c-5.687,0.392-12.043,2.168-17.169,5.191L1889.504,1054.782z"/>
			
				<path style="fill:#939E30;stroke:#51222C;stroke-width:11.1558;stroke-linecap:round;stroke-linejoin:round;stroke-miterlimit:10;" d="
				M1823.065,970.051c-21.821,23.837-99.803,21.516-128.536,13.067c0,0,36.931-10.126,73.041-14.833
				C1803.678,963.58,1823.065,970.051,1823.065,970.051z"/>
			
				<path style="fill:#939E30;stroke:#51222C;stroke-width:11.1558;stroke-linecap:round;stroke-linejoin:round;stroke-miterlimit:10;" d="
				M1786.405,938.948c4.527-27.094-16.14-79.115-33.745-109.03c-3.965,23.576,5.774,79.305,31.588,107.461L1786.405,938.948z"/>
			
				<path style="fill:#98AC52;stroke:#51222C;stroke-width:11.1558;stroke-linecap:round;stroke-linejoin:round;stroke-miterlimit:10;" d="
				M1881.851,1042.373c11.052-8.699,18.711-26.337,22.105-42.57c5.027-22.987,6.269-46.671,3.96-70.225
				c-18.76,25.144-31.457,80.215-26.996,111.231L1881.851,1042.373z"/>
			
				<path style="fill:#608130;stroke:#51222C;stroke-width:11.1558;stroke-linecap:round;stroke-linejoin:round;stroke-miterlimit:10;" d="
				M1883.545,1044.775c-28.32,27.911-66.009,39.688-105.746,11.679c15.639-1.825,39.835-7.55,61.117-8.884
				C1860.187,1046.24,1883.545,1044.775,1883.545,1044.775z"/>
			
				<path style="fill:#939E30;stroke:#51222C;stroke-width:11.1558;stroke-linecap:round;stroke-linejoin:round;stroke-miterlimit:10;" d="
				M1886.933,1049.596c22.627-1.944,39.427-27.372,45.996-46.742c-14.92,6.755-33.881,22.018-40.374,36.703L1886.933,1049.596z"/>
		</g>
		<g>
			
				<path style="fill:#98AC52;stroke:#51222C;stroke-width:11.1558;stroke-linecap:round;stroke-linejoin:round;stroke-miterlimit:10;" d="
				M2010.79,1072.479c1.492,25.754,0.349,100.86,6.22,124.391h-6.515c-5.73-23.423-4.494-98.539-5.927-124.391
				c-1.775-31.855-0.272-65.442,4.51-100.533c10.764-79.136,36.218-152.662,73.58-212.635c0.61-0.981,1.634-1.525,2.735-1.438
				c1.111,0.081,2.179,0.795,2.696,1.825c0.507,0.986,0.446,2.108-0.158,3.078c-30.967,49.711-53.251,107.614-66.226,172.097
				C2011.945,983.418,2008.307,1029.436,2010.79,1072.479z"/>
			
				<path style="fill:#98AC52;stroke:#51222C;stroke-width:11.1558;stroke-linecap:round;stroke-linejoin:round;stroke-miterlimit:10;" d="
				M2081.276,767.613c-15.481-77.867,47.668-123.694,86.926-182.087C2161.153,645.945,2135.786,730.289,2081.276,767.613
				L2081.276,767.613z"/>
			
				<path style="fill:#98AC52;stroke:#51222C;stroke-width:11.1558;stroke-linecap:round;stroke-linejoin:round;stroke-miterlimit:10;" d="
				M2033.091,876.437c-20.492-37.15-37.564-68.112-46.758-111.885c-9.004-42.684-11.603-87.672-4.804-130.993l0,0l0,0
				c6.335,15.889,23.869,30.852,32.41,46.323c11.543,19.479,16.69,41.267,20.732,63.252c6.286,34.094,7.768,66.782,1.547,100.892
				L2033.091,876.437z"/>
			
				<path style="fill:#939E30;stroke:#51222C;stroke-width:11.1558;stroke-linecap:round;stroke-linejoin:round;stroke-miterlimit:10;" d="
				M2061.792,804.937c65.339,15.252,136.075-51.214,179.392-87.612c-46.383,7.408-101.007,37.934-141.06,61.226L2061.792,804.937z"
				/>
			
				<path style="fill:#98AC52;stroke:#51222C;stroke-width:11.1558;stroke-linecap:round;stroke-linejoin:round;stroke-miterlimit:10;" d="
				M2026.56,902.653c67.964,29.54,157.81,5.034,206.267-52.777c0,0-44.993,2.604-64.287,2.745
				c-26.996,1.569-54.281,7.73-78.352,18.983L2026.56,902.653z"/>
			
				<path style="fill:#608130;stroke:#51222C;stroke-width:11.1558;stroke-linecap:round;stroke-linejoin:round;stroke-miterlimit:10;" d="
				M2020.541,925.161c-43.741-21.5-85.422-80.7-92.133-129.485c16.325,8.367,30.265,28.533,43,42.101
				c20.95,21.151,35.096,42.417,44.966,71.298L2020.541,925.161z"/>
			
				<path style="fill:#939E30;stroke:#51222C;stroke-width:11.1558;stroke-linecap:round;stroke-linejoin:round;stroke-miterlimit:10;" d="
				M2014.505,957.539c46.017,16.086,84.017-1.569,120.682-33.168c0,0-36.905-0.654-52.701,1.95
				c-14.871,1.972-31.256,7.681-44.22,16.461L2014.505,957.539z"/>
			
				<path style="fill:#939E30;stroke:#51222C;stroke-width:11.1558;stroke-linecap:round;stroke-linejoin:round;stroke-miterlimit:10;" d="
				M2008.132,1004.466c10.797,24.812,32.313,33.636,59.004,36.659c0,0-13.65-15.273-20.666-20.732
				c-6.406-5.316-14.909-9.837-23.369-11.809L2008.132,1004.466z"/>
			
				<path style="fill:#608130;stroke:#51222C;stroke-width:11.1558;stroke-linecap:round;stroke-linejoin:round;stroke-miterlimit:10;" d="
				M2008.285,1011.144c-17.611,20.536-40.766,22.65-67.174,17.692c0,0,17.54-10.589,25.852-13.738
				c7.681-3.203,17.137-5.022,25.798-4.423L2008.285,1011.144z"/>
			
				<path style="fill:#939E30;stroke:#51222C;stroke-width:11.1558;stroke-linecap:round;stroke-linejoin:round;stroke-miterlimit:10;" d="
				M2039.802,857.169c44.046,16.903,144.366-36.986,176.401-66.76c0,0-54.842,10.856-105.07,28.26
				C2060.909,836.073,2039.802,857.169,2039.802,857.169z"/>
			
				<path style="fill:#939E30;stroke:#51222C;stroke-width:11.1558;stroke-linecap:round;stroke-linejoin:round;stroke-miterlimit:10;" d="
				M2067.391,792.632c-23.57-32.438-30.498-113.851-27.012-164.389c20.547,28.194,44.165,107.33,28.804,160.936L2067.391,792.632z"
				/>
			
				<path style="fill:#98AC52;stroke:#51222C;stroke-width:11.1558;stroke-linecap:round;stroke-linejoin:round;stroke-miterlimit:10;" d="
				M2010.186,989.955c-20.105-4.162-41.611-22.208-56.629-41.197c-21.554-26.74-38.626-56.863-50.963-89.137
				c40.903,20.618,93.392,84.262,107.783,127.676L2010.186,989.955z"/>
			
				<path style="fill:#608130;stroke:#51222C;stroke-width:11.1558;stroke-linecap:round;stroke-linejoin:round;stroke-miterlimit:10;" d="
				M2009.543,994.193c55.18,17.986,112.087,8.781,145.712-53.709c-21.609,7.822-56.95,16.118-85.602,28.249
				C2041,980.875,2009.543,994.193,2009.543,994.193z"/>
			
				<path style="fill:#939E30;stroke:#51222C;stroke-width:11.1558;stroke-linecap:round;stroke-linejoin:round;stroke-miterlimit:10;" d="
				M2008.262,1002.69c-30.825,12.213-69.348-10.034-90.553-31.049c23.891-0.904,58.611,6.657,76.663,21.614L2008.262,1002.69z"/>
		</g>
		
			<polygon style="fill:#ED7939;stroke:#512224;stroke-width:11.1558;stroke-linecap:round;stroke-linejoin:round;stroke-miterlimit:10;" points="
			1892.391,1342.756 2043.081,1342.108 2068.922,1149.66 1866.005,1149.66 		"/>
		
			<path style="fill:#F49758;stroke:#51222C;stroke-width:11.1558;stroke-linecap:round;stroke-linejoin:round;stroke-miterlimit:10;" d="
			M1859.163,1149.66v-34.42c0-6.983,5.665-12.648,12.648-12.648h191.304c6.994,0,12.648,5.665,12.648,12.648v34.42H1859.163z"/>
	</g>
</g>
</svg>
